<svg xmlns="http://www.w3.org/2000/svg" width="80" height="80" fill="none"><g clip-path="url(#a)"><path fill="#EFC9A4" d="M80 0v31.667C80 36.26 76.26 40 71.667 40h-5v40h-3.334V40h-5C53.74 40 50 36.26 50 31.667V0h3.333v31.667c0 2.756 2.244 5 5 5h5V0h3.334v36.667h5c2.756 0 5-2.244 5-5V0H80ZM3.333 40C3.333 19.783 19.783 3.333 40 3.333a36.7 36.7 0 0 1 3.333.17V.17C42.23.08 41.127 0 40 0 17.943 0 0 17.943 0 40s17.943 40 40 40c5.953 0 11.587-1.343 16.667-3.683V72.62C51.66 75.19 46.003 76.667 40 76.667 19.783 76.667 3.333 60.217 3.333 40Zm13.334 0c0-12.867 10.466-23.333 23.333-23.333 1.133 0 2.24.11 3.333.266v-3.366a26.816 26.816 0 0 0-3.333-.23c-14.703 0-26.667 11.963-26.667 26.666C13.333 54.707 25.297 66.67 40 66.67c6.303 0 12.097-2.21 16.667-5.883v-4.484c-4.24 4.334-10.14 7.034-16.667 7.034-12.867 0-23.333-10.467-23.333-23.334V40Z"/></g><defs><clipPath id="a"><path fill="#fff" d="M0 0h80v80H0z"/></clipPath></defs></svg>