<svg xmlns="http://www.w3.org/2000/svg" width="80" height="80" fill="none"><g clip-path="url(#a)"><path fill="#EFC9A4" d="M80 26.667h-6.667v-8.334C73.333 8.223 65.11 0 55 0H25C14.89 0 6.667 8.223 6.667 18.333v8.334H0v46.666h6.667V80H10v-6.667h60V80h3.333v-6.667H80V26.667ZM13.333 70h-10V30h5c2.757 0 5 2.243 5 5v35Zm3.334 0V46.667h46.666V70H16.667Zm46.666-35v8.333H16.667V35c0-4.023-2.867-7.39-6.667-8.163v-8.504c0-8.27 6.73-15 15-15h30c8.27 0 15 6.73 15 15v8.504c-3.8.773-6.667 4.14-6.667 8.163Zm13.334 35h-10V35c0-2.757 2.243-5 5-5h5v40Z"/></g><defs><clipPath id="a"><path fill="#fff" d="M0 0h80v80H0z"/></clipPath></defs></svg>