<svg xmlns="http://www.w3.org/2000/svg" width="80" height="80" fill="none"><path fill="#EFC9A4" d="M31.484 39.245c11.656-.07 17.676-6.1 17.89-17.983-.197-11.487-6.55-17.93-17.91-17.93-11.647 0-17.894 6.623-17.894 17.987 0 11.66 6.4 17.856 17.914 17.923v.003Zm-.02-32.58c9.51.064 14.41 4.994 14.576 14.594-.183 9.94-4.813 14.596-14.556 14.653-9.757-.057-14.387-4.703-14.58-14.623.183-9.78 4.953-14.564 14.56-14.624Zm0 40.983c-17.52.11-26.947 9.56-27.264 27.324-.016.92.717 1.68 1.637 1.696h.03c.907 0 1.65-.726 1.667-1.636.286-16.084 8.12-23.95 23.93-24.05 15.617.1 23.673 8.193 23.947 24.05.016.92.743 1.653 1.696 1.636a1.665 1.665 0 0 0 1.637-1.696c-.303-17.507-9.983-27.21-27.28-27.324Zm42.666-6.856h-8.023v-8a1.667 1.667 0 0 0-3.333 0v8h-8.02a1.667 1.667 0 0 0 0 3.333h8.02v7.997a1.667 1.667 0 0 0 3.333 0v-7.997h8.023a1.667 1.667 0 0 0 0-3.333Z"/></svg>