<svg xmlns="http://www.w3.org/2000/svg" width="80" height="80" fill="none"><g clip-path="url(#a)"><path fill="#EFC9A4" d="M19.92 19.263c2.767 1.12 5.19 3.237 7.754 5.477 3.896 3.403 7.93 6.927 13.463 6.927 7.013 0 12.887-4.797 14.81-11.317 2.553 1.867 5.07 4.653 7.633 8.85.314.517.864.8 1.424.8a1.663 1.663 0 0 0 1.423-2.533c-3.18-5.214-6.383-8.574-9.847-10.704.017-.313.094-.61.094-.93C56.674 7.103 49.707 0 41.144 0 31.96 0 24.35 3.7 17.877 11.313c-1.053 1.24-1.44 2.847-1.057 4.404.39 1.59 1.554 2.916 3.11 3.546h-.01Zm.487-5.793c5.8-6.82 12.58-10.137 20.73-10.137 6.487 0 11.76 5.234 12.127 11.787-3.49-1.363-7.284-1.787-11.597-1.787a1.667 1.667 0 0 0 0 3.334c4.047 0 7.757.233 11.347 1.923-1.23 5.567-6.077 9.743-11.877 9.743-4.283 0-7.68-2.966-11.273-6.106-2.657-2.324-5.407-4.724-8.694-6.054-.573-.233-.983-.69-1.12-1.25a1.61 1.61 0 0 1 .357-1.453ZM76.534 43a4.878 4.878 0 0 0-3.547-2.897 5.05 5.05 0 0 0-4.49 1.3c-2.263 2.154-5.087 3.72-8.08 5.377-4.49 2.487-9.133 5.06-11.837 9.833a15.483 15.483 0 0 0-1.433 11.907c.667 2.36 1.903 4.443 3.51 6.213-2.717 1.177-5.713 1.934-8.99 1.934a1.667 1.667 0 0 0 0 3.333c4.34 0 8.31-1.093 11.773-2.86.42.287.804.613 1.254.863a15.899 15.899 0 0 0 7.71 1.99c5.566 0 10.98-2.896 13.886-8.033 4.777-8.44 4.86-18.187.244-28.96ZM73.39 70.32c-3.32 5.86-10.76 7.993-16.746 4.91 4.96-3.457 8.483-8.323 9.91-13.037.266-.88-.23-1.81-1.114-2.076a1.67 1.67 0 0 0-2.076 1.113c-1.327 4.387-4.794 8.893-9.63 11.907-1.58-1.51-2.77-3.377-3.377-5.52a12.153 12.153 0 0 1 1.13-9.36c2.237-3.954 6.273-6.19 10.547-8.557 3.043-1.687 6.19-3.43 8.763-5.88a1.72 1.72 0 0 1 1.52-.45c.307.063.863.27 1.153.947 4.187 9.77 4.16 18.52-.076 26.006l-.004-.003ZM30.27 49.33c-1.786-3.93-4.98-6.913-8.996-8.397-2.594-.956-5.324-1.14-7.98-.7-.014-4.24.803-8.296 2.97-10.816a1.665 1.665 0 1 0-2.527-2.17c-2.927 3.403-3.953 8.643-3.8 13.923-.25.103-.513.153-.76.27-7.947 3.71-11.44 13.283-7.783 21.337C5.397 71.597 12.99 77.35 23.96 79.87c.367.083.737.127 1.104.127 1.253 0 2.47-.484 3.4-1.377a5.024 5.024 0 0 0 1.45-4.567c-.134-.72-.16-2.656-.174-3.69-.036-2.65.484-5.133.98-7.536.877-4.224 1.784-8.59-.446-13.5l-.004.003Zm-2.82 12.82c-.533 2.577-1.086 5.243-1.043 8.467.02 1.476.057 3.126.227 4.056.11.58-.07 1.144-.487 1.547a1.55 1.55 0 0 1-1.443.403C14.8 74.347 7.977 69.223 4.424 61.4c-2.844-6.267-.227-13.657 5.8-16.723.536 4.276 1.743 8.323 3.316 11.136a1.668 1.668 0 0 0 2.91-1.626c-1.473-2.63-2.56-6.57-2.983-10.64.78-.154 1.567-.26 2.357-.26 1.446 0 2.893.256 4.293.773 3.173 1.173 5.7 3.533 7.117 6.65 1.776 3.92 1.053 7.407.213 11.443l.003-.003Z"/></g><defs><clipPath id="a"><path fill="#fff" d="M0 0h80v80H0z"/></clipPath></defs></svg>